<svg xmlns="http://www.w3.org/2000/svg" version="1.1" xmlns:xlink="http://www.w3.org/1999/xlink" xmlns:svgjs="http://svgjs.dev/svgjs" width="1500" height="1500" viewBox="0 0 1500 1500"><rect width="1500" height="1500" fill="#ffffff"></rect><g transform="matrix(0.6666666666666666,0,0,0.6666666666666666,248.44253788424248,189.33333333333348)"><svg viewBox="0 0 321 360" data-background-color="#ffffff" preserveAspectRatio="xMidYMid meet" height="1682" width="1500" xmlns="http://www.w3.org/2000/svg" xmlns:xlink="http://www.w3.org/1999/xlink"><g id="tight-bounds" transform="matrix(1,0,0,1,0.5000546608418972,0)"><svg viewBox="0 0 320 360" height="360" width="320"><g><svg></svg></g><g><svg viewBox="0 0 320 360" height="360" width="320"><g><path transform="translate(-119.39272,-98.31927) scale(5.58313,5.58313)" d="M36.7 23.5c0-0.2 0.1-0.4 0.3-0.4 0.2 0 0.4 0.1 0.4 0.4 0.1 0 0.3 0 0.4-0.1 0.4 0 0.8-0.1 1.1 0 0.3 0.1 0.5 0.1 0.8 0.2 0.3 0.1 0.5 0 0.7-0.1 0.4-0.1 0.7-0.3 1.1-0.4 0.2-0.1 0.3-0.1 0.5-0.1 0.2-0.1 0.4-0.1 0.7-0.2 0.5-0.1 1-0.2 1.4-0.4 0.4-0.2 0.8-0.2 1.2-0.3 0.2 0 0.3-0.1 0.5-0.2 0.1 0 0.1-0.1 0.2-0.2 0.2-0.1 0.3-0.2 0.5-0.1 0.1 0.1 0.3 0.1 0.4 0h0.1c0.6 0 1.2-0.1 1.9 0 0.1 0 0.2 0 0.2 0 0.3-0.2 0.7-0.2 1.1-0.2 0.1 0 0.3 0 0.4 0h0.1c0.4 0 0.8 0 1.1 0.1 0.3 0 0.5 0.1 0.8 0.2 0.3 0 0.5 0 0.8 0.1 0.2 0 0.4 0 0.6 0 0.1 0 0.2 0 0.2 0 0.4 0.1 0.8 0.1 1.2 0.1 0.3 0.1 0.6 0.2 1 0.2 0.1 0 0.2 0 0.3 0 0.1 0 0.2 0.1 0.3 0.1l0.1 0.1c0.4 0 0.7 0.2 1.1 0.2 0.1 0 0.3 0 0.4 0.1 0.3 0.2 0.7 0.3 1.1 0.3 0.2 0 0.3 0.1 0.4 0.2 0.3 0.1 0.5 0.2 0.8 0.3 0.2 0.1 0.4 0 0.6 0.1 0.3 0.1 0.7 0.2 1 0.5 0.2 0.2 0.4 0.2 0.7 0.4 0.1 0 0.2 0.1 0.3 0.2 0.3 0.2 0.6 0.4 0.9 0.5 0.1 0 0.2 0.1 0.3 0.1 0.3 0.2 0.6 0.5 1 0.7 0.2 0.1 0.3 0.2 0.5 0.3h0.1c0.3 0.3 0.7 0.5 1 0.8 0.3 0.3 0.5 0.5 0.9 0.7 0 0 0 0 0 0.1 0.1 0.2 0.2 0.3 0.4 0.4 0.2 0.1 0.3 0.2 0.4 0.3 0.3 0.2 0.6 0.4 0.8 0.6 0.1 0.1 0.2 0.2 0.4 0.4 0.1 0.1 0.2 0.2 0.3 0.2 0.4 0.1 0.6 0.4 0.9 0.7 0.2 0.2 0.5 0.5 0.7 0.7 0.1 0.1 0.2 0.3 0.3 0.5 0.2 0.6 0.5 1.2 0.8 1.7 0 0 0 0.1 0.1 0.2v0.1c0.2 0.2 0.3 0.5 0.5 0.7 0.1 0.1 0.1 0.2 0.2 0.3 0.2 0.3 0.3 0.7 0.5 1 0.3 0.5 0.5 1 0.7 1.5v0.1c0.1 0.2 0.2 0.4 0.3 0.7 0 0.2 0.2 0.4 0.3 0.7 0.1 0.5 0.4 1 0.5 1.6 0 0.1 0.1 0.2 0.1 0.4 0.1 0.3 0.2 0.6 0.3 0.9 0 0.1 0.1 0.2 0.2 0.3 0.2 0.2 0.2 0.4 0.2 0.6-0.1 0.4 0 0.8 0.1 1.2 0 0.1 0 0.2 0 0.4 0.1 0.4 0.2 0.9 0.2 1.3 0 0.1 0 0.3 0 0.4 0 0.3 0.1 0.6 0.3 0.9 0 0.1 0.1 0.1 0.1 0.1 0.1 0.1 0.2 0.3 0.3 0.4 0.1 0.1 0.1 0.1 0.2 0.2 0.2 0.2 0.3 0.4 0.3 0.7 0 0.1-0.1 0.3-0.1 0.4 0 0.1 0 0.3 0.1 0.4 0.1 0.1 0.1 0.2 0.1 0.3 0 0.1-0.1 0.2-0.2 0.2v0c-0.1 0.3-0.5 0.4-0.6 0.7-0.1 0.4-0.2 0.8-0.3 1.2-0.1 0.3-0.1 0.5-0.1 0.8 0 0.3-0.1 0.5-0.1 0.8-0.1 0.4-0.2 0.8-0.3 1.2 0 0.2-0.1 0.4-0.1 0.6 0.1 0.1 0.2 0.2 0.3 0.2 0.2 0.2 0.4 0.4 0.6 0.6 0.1 0.1 0.1 0.2 0 0.2-0.1 0.1-0.2 0.1-0.3 0.1-0.1-0.1-0.3-0.2-0.4-0.2-0.1-0.1-0.3-0.2-0.5-0.1 0 0.2-0.1 0.4-0.1 0.5-0.1 0.2-0.2 0.5-0.2 0.7-0.1 0.4-0.3 0.7-0.4 1.1-0.2 0.5-0.4 0.9-0.6 1.3-0.1 0.2-0.2 0.4-0.3 0.6v0c0 0.3-0.3 0.6-0.4 0.9-0.2 0.4-0.4 0.8-0.6 1.3-0.1 0.2-0.2 0.4-0.3 0.5-0.2 0.5-0.4 0.9-0.7 1.3-0.2 0.3-0.4 0.5-0.6 0.6-0.2 0.2-0.4 0.4-0.6 0.6-0.1 0.1-0.2 0.2-0.3 0.3-0.1 0.1-0.1 0.1-0.2 0.2-0.2 0.3-0.5 0.5-0.7 0.8-0.2 0.2-0.3 0.4-0.6 0.6-0.2 0.2-0.4 0.5-0.7 0.6-0.1 0.1-0.2 0.3-0.3 0.4-0.1 0.1-0.2 0.3-0.3 0.4 0 0.2 0.1 0.4 0.1 0.5 0 0.3-0.3 0.4-0.5 0.2-0.3-0.2-0.3-0.2-0.6 0-0.3 0.2-0.6 0.5-1 0.6-0.1 0-0.1 0.1-0.2 0.1-0.2 0.1-0.3 0.3-0.5 0.4-0.2 0.2-0.5 0.3-0.7 0.5-0.1 0.1-0.2 0.1-0.3 0.2-0.3 0.2-0.6 0.3-0.9 0.6-0.1 0.1-0.2 0.1-0.3 0.2 0 0.1 0 0.1 0 0.2 0 0.2-0.2 0.4-0.5 0.3-0.3-0.1-0.5 0-0.8 0-0.3 0.1-0.6 0.3-0.9 0.4-0.1 0-0.2 0.1-0.3 0.2-0.3 0.2-0.6 0.3-0.9 0.4-0.2 0-0.4 0.2-0.6 0.2-0.1 0-0.2 0.1-0.3 0.1h-0.1c-0.4 0.3-0.8 0.5-1.2 0.8-0.1 0-0.1 0.1-0.2 0.2-0.1 0.2-0.2 0.3-0.4 0.3-0.5 0-0.7 0.4-0.6 0.8 0 0.1 0.1 0.2 0.1 0.3 0.1 0.2 0 0.4-0.1 0.5-0.1 0.1-0.4 0.1-0.5-0.1-0.2-0.2-0.3-0.4-0.4-0.7-0.1-0.2-0.3-0.4-0.5-0.5-0.2-0.1-0.4-0.1-0.6 0-0.1 0-0.1 0.1-0.2 0.1-0.2 0.2-0.5 0.3-0.8 0.2-0.1 0-0.3 0-0.3 0.1-0.1 0.1-0.1 0.3 0 0.4 0.2 0.2 0.1 0.4 0.1 0.7 0 0.4-0.3 0.6-0.7 0.4-0.1-0.1-0.2-0.1-0.3-0.2-0.1 0-0.1-0.1-0.1-0.2-0.1-0.1-0.1-0.3-0.2-0.5-0.2 0.1-0.4 0.1-0.6 0.2-0.1 0-0.2 0.1-0.3 0.1-0.3 0-0.4 0-0.5-0.3-0.1-0.3-0.3-0.3-0.5-0.4-0.4-0.1-0.9-0.1-1.3-0.3h-0.1c-0.4-0.3-0.8-0.3-1.3-0.3-0.3 0-0.6 0.1-0.9 0.1-0.3 0-0.5 0.1-0.7 0.3-0.1 0.1-0.2 0.2-0.3 0.2-0.1-0.1-0.1-0.2-0.2-0.3v-0.1c0-0.1-0.1-0.2-0.2-0.1-0.2 0.1-0.4-0.1-0.6-0.2-0.1-0.1-0.3-0.3-0.3-0.5-0.1-0.1-0.2-0.2-0.3-0.2-0.2 0-0.5-0.1-0.7-0.1-0.1 0-0.2 0-0.2-0.1-0.1-0.1-0.2-0.1-0.4-0.1-0.1 0-0.1-0.1-0.2-0.1 0.2 0.2 0.3 0.4 0.4 0.6 0 0.1 0.1 0.1 0.1 0.2 0.1 0.2 0 0.3-0.3 0.3-0.2 0-0.2 0-0.3 0.1 0 0.2 0 0.3 0 0.5 0 0.1 0 0.2-0.2 0.3 0 0-0.1 0-0.1 0.1-0.1 0.1-0.1 0.2 0 0.3 0.3 0.2 0.5 0.3 0.8 0.4 0.3 0 0.3 0.2 0.4 0.4 0.1 0.2 0 0.3-0.1 0.5-0.2 0.2-0.4 0.4-0.6 0.6-0.3 0.1-0.5 0.4-0.8 0.4-0.2 0-0.4-0.1-0.5-0.3-0.1-0.5-0.1-0.9 0.1-1.4 0-0.1 0.1-0.2 0-0.3-0.9 0-0.9-0.2-0.9-0.3 0-0.2 0.1-0.3 0.1-0.5 0.1-0.2 0-0.3-0.3-0.4-0.1 0-0.2 0-0.3 0-0.1 0-0.1-0.1-0.3-0.1 0.2-0.1 0.3-0.1 0.5-0.2-0.1-0.4-0.2-0.7-0.5-0.9-0.1-0.1-0.2-0.2-0.2-0.4 0-0.3-0.2-0.5-0.3-0.7-0.2-0.3-0.6-0.4-0.9-0.4-0.3-0.1-0.5-0.1-0.8-0.2-0.3-0.1-0.6-0.4-0.9-0.5-0.1-0.1-0.2-0.2-0.4-0.3-0.4-0.2-0.7-0.5-1-0.8-0.2-0.1-0.3-0.3-0.5-0.4-0.2-0.2-0.3-0.4-0.5-0.5-0.2-0.2-0.4-0.4-0.7-0.6-0.3-0.2-0.5-0.5-0.8-0.8-0.2-0.3-0.5-0.5-0.8-0.7-0.1 0-0.2 0-0.3 0-0.1 0-0.2 0.1-0.3 0.1-0.3 0.1-0.5 0.3-0.8 0.4 0.1-0.1 0.1-0.1 0-0.3-0.1-0.1-0.2-0.2-0.3-0.2-0.2 0-0.4 0-0.6 0-0.4 0-0.8 0.1-1.2 0.1-0.3 0-0.7 0.1-1 0.2 0.1 0.2 0.1 0.3 0.2 0.5-0.2 0.1-0.4 0.1-0.6 0.1-0.1 0-0.3 0.1-0.4 0.2-0.1 0-0.1 0.1-0.2 0-0.2-0.1-0.4 0-0.6 0.1h-0.1c0 0 0-0.1 0.1-0.1 0.1-0.1 0.2-0.2 0.3-0.3 0.1-0.1 0.2-0.1 0.4-0.2-0.1-0.1-0.1-0.2-0.1-0.2-0.1-0.1-0.2-0.1-0.3 0-0.1 0.1-0.2 0.2-0.3 0.3-0.1 0.1-0.2 0.1-0.3 0-0.1-0.1-0.1-0.2 0-0.3 0-0.1 0.1-0.2 0.2-0.3 0.1-0.1 0.1-0.2 0.2-0.3-0.2-0.2-0.3-0.4-0.5-0.5-0.3-0.2-0.6-0.5-0.8-0.8-0.2-0.4-0.5-0.7-0.9-0.9-0.1-0.1-0.2-0.2-0.3-0.3-0.1-0.1-0.1-0.1-0.2-0.2-0.3 0.1-0.5 0.3-0.8 0.4-0.1 0-0.1 0.1-0.2 0.2-0.1 0.2-0.3 0.2-0.5 0.2-0.1 0-0.2-0.1-0.1-0.2 0.1-0.2 0.2-0.4 0.5-0.3 0 0 0.1 0 0.1-0.1 0.2-0.2 0.4-0.5 0.7-0.7-0.1-0.3-0.3-0.5-0.4-0.7-0.1-0.1-0.1-0.2-0.1-0.4 0-0.1 0-0.1-0.1-0.2 0 0-0.1 0-0.2 0.1-0.1 0.1-0.3 0.2-0.5 0 0-0.1 0-0.2 0.1-0.3l0.1-0.1c0.3-0.1 0.3-0.4 0.3-0.7v-0.1c-0.1-0.2-0.1-0.3 0.1-0.5 0.3-0.2 0.6-0.6 0.7-0.9 0.1-0.2 0.3-0.3 0.5-0.5 0.2-0.2 0.4-0.4 0.5-0.7h0.1c0.4 0.1 0.5-0.2 0.7-0.5 0-0.1 0-0.2 0.1-0.2 0.2-0.2 0.2-0.4 0.1-0.7 0-0.1-0.1-0.3-0.1-0.4 0-0.1 0-0.1-0.1-0.2-0.3-0.2-0.3-0.4 0-0.6 0.2-0.1 0.2-0.3 0.3-0.4 0.1-0.2 0.1-0.4 0.1-0.7-0.1-0.3-0.1-0.7-0.2-1-0.1-0.4-0.2-0.9-0.3-1.3 0-0.1 0-0.1 0-0.2 0-0.3 0-0.5-0.1-0.8-0.1-0.1-0.1-0.3-0.1-0.4-0.1-0.3-0.2-0.5-0.5-0.6-0.3-0.2-0.7-0.3-1-0.5-0.1-0.1-0.2 0-0.3 0.1-0.1 0.2-0.3 0.4-0.4 0.6-0.1 0.1-0.2 0.3-0.3 0.5-0.2 0.2-0.6 0.4-0.9 0.1-0.1-0.2-0.2-0.3 0-0.5 0.2-0.3 0.4-0.6 0.7-0.8 0.1-0.1 0.2-0.3 0.3-0.4 0.1-0.2 0.1-0.4 0.1-0.6-0.1-0.4-0.2-0.8-0.2-1.3 0-0.5 0-0.9 0.1-1.4 0.1-0.2 0.1-0.5 0.2-0.7 0-0.1 0.1-0.3 0.2-0.4 0.2-0.2 0.4-0.4 0.5-0.7 0.1-0.3 0.3-0.6 0.3-0.9 0-0.1 0.1-0.2 0.1-0.3 0-0.1 0.1-0.3 0.1-0.4-0.1-0.3 0-0.5 0.1-0.7 0.1-0.2 0.2-0.5 0.3-0.7 0.2-0.4 0.2-0.9 0.6-1.3 0.1-0.2 0.2-0.4 0.3-0.6 0.1-0.4 0.3-0.7 0.5-1 0.1-0.1 0.1-0.1 0.1-0.2 0.1-0.3 0.3-0.6 0.5-0.9 0.2-0.3 0.2-0.6 0.3-0.9 0-0.1 0-0.2 0.1-0.3 0.3-0.3 0.2-0.7 0.1-1.1-0.2-0.5-0.3-1-0.2-1.5 0-0.1 0-0.2 0.1-0.2 0.1-0.2 0.1-0.3 0.2-0.5v-0.1c0.2-0.2 0.4-0.5 0.7-0.6 0.4-0.2 0.8-0.3 1.3-0.4 0.4 0 0.8-0.2 1.1-0.6 0-0.1 0.1-0.1 0.2-0.2l0.1-0.1c0.1-0.2 0.2-0.3 0.3-0.4 0.2-0.2 0.4-0.5 0.6-0.7 0.2-0.2 0.4-0.5 0.7-0.8l0.1-0.1c0.2-0.2 0.4-0.4 0.6-0.5 0.2-0.2 0.4-0.4 0.6-0.6 0.2-0.2 0.3-0.4 0.5-0.6 0.2-0.1 0.4-0.3 0.6-0.5 0.2-0.2 0.4-0.4 0.5-0.5 0.2-0.2 0.5-0.4 0.7-0.5 0.2-0.1 0.4-0.2 0.5-0.5 0.1-0.3 0.2-0.5 0.3-0.8 0-0.2 0.1-0.4 0.2-0.6 0.1 0 0.2 0 0.4-0.1-0.1-0.1-0.2-0.1-0.2-0.2 0-0.1 0.1-0.2 0.1-0.2 0-0.1 0.1-0.2 0.1-0.3 0 0 0.1 0 0.1-0.1 0 0 0.1 0 0.1-0.1-0.2 0.1-0.3 0-0.4-0.1 0.1 0.1 0.2 0.1 0.4 0.2 0 0 0.1 0 0.1-0.1 0-0.1 0-0.2 0-0.2 0 0-0.1 0-0.2 0-0.1 0-0.2 0.1-0.3 0.1zM54 70.5c0-0.1-0.1-0.1-0.1-0.2-0.1-0.2 0-0.3 0.1-0.4 0.1-0.1 0.2-0.1 0.4-0.1 0.2 0.1 0.3 0.2 0.3 0.4 0 0.1 0 0.3 0 0.4 0.1 0.4 0.1 0.4 0.5 0.4 0.2 0 0.4 0 0.6 0 0.4-0.1 0.8-0.3 1.2-0.4 0.4-0.1 0.8-0.2 1.2-0.3 0.1 0 0.2 0 0.4 0 0.4 0.1 0.7 0 1-0.2 0.1-0.1 0.3-0.1 0.4-0.2 0.2-0.1 0.4-0.1 0.6-0.2 0.5-0.3 1-0.5 1.4-0.8 0.3-0.2 0.6-0.4 0.9-0.6 0.3-0.2 0.6-0.4 0.9-0.6 0.2-0.1 0.5-0.3 0.7-0.5 0.4-0.3 0.7-0.6 1.1-0.8 0.2-0.1 0.3-0.2 0.4-0.3 0.2-0.1 0.3-0.3 0.5-0.4 0.1-0.1 0.2-0.2 0.4-0.3 0.1-0.1 0.1-0.1 0.1-0.2 0.3-0.2 0.6-0.6 0.8-0.9 0.2-0.2 0.4-0.4 0.6-0.7 0.3-0.3 0.5-0.7 0.8-1.1 0.2-0.2 0.4-0.5 0.5-0.7 0.2-0.4 0.4-0.8 0.7-1.1v-0.1c0.2-0.4 0.4-0.8 0.6-1.2 0.3-0.5 0.5-1.1 0.8-1.6 0.1-0.2 0.2-0.4 0.2-0.6 0.2-0.4 0.3-0.8 0.4-1.2 0-0.1 0-0.1 0.1-0.2 0.3-0.6 0.5-1.2 0.6-1.9 0.1-0.4 0.2-0.8 0.3-1.2 0.2-0.6 0.2-1.1 0.3-1.7 0.1-0.4 0.1-0.9 0.1-1.3 0.1-0.6 0.1-1.3 0-1.9 0-0.5-0.1-1.1-0.1-1.6 0-0.5-0.1-0.9-0.2-1.4-0.1-0.5-0.2-0.9-0.3-1.4-0.2-0.4-0.3-0.8-0.4-1.3-0.1-0.4-0.3-0.7-0.3-1.1 0-0.3-0.1-0.6-0.4-0.7-0.3-0.1-0.5-0.2-0.8-0.4-0.6-0.4-0.9-0.9-0.8-1.5 0-0.3 0.1-0.7 0.2-1 0.1-0.3 0.2-0.6 0-0.8-0.1-0.3-0.3-0.5-0.4-0.7-0.2-0.3-0.3-0.5-0.5-0.7-0.2-0.4-0.4-0.8-0.7-1.1-0.4-0.5-0.7-1-1.2-1.4l-0.1-0.1c-0.3-0.4-0.6-0.8-1-1.1-0.2-0.2-0.4-0.4-0.6-0.5-0.1-0.1-0.2-0.2-0.4-0.3-0.3-0.2-0.6-0.3-0.8-0.5-0.3-0.3-0.7-0.5-1-0.7 0 0-0.1 0-0.1-0.1-0.4-0.2-0.7-0.3-1.1-0.5-0.4-0.2-0.8-0.3-1.2-0.3-0.1 0-0.1 0-0.2 0-0.1-0.1-0.3-0.1-0.4-0.1-0.1 0-0.1 0-0.2 0-0.2-0.1-0.5 0-0.7 0-0.4 0.1-0.8 0.1-1.2-0.1-0.5-0.2-0.9-0.4-1.3-0.6-0.3-0.2-0.5-0.4-0.8-0.6-0.6-0.5-1.2-1.1-1.9-1.6 0.1-0.5-0.1-0.6-0.5-0.6-0.2 0-0.4 0.1-0.6 0.2-0.1 0.1-0.1 0.1-0.2 0.2-0.3 0.2-0.5 0.5-0.8 0.7-0.5 0.3-0.7 0.2-1.1 0-0.1-0.1-0.2-0.2-0.3-0.3-0.2-0.2-0.4-0.5-0.5-0.7-0.2-0.4-0.6-0.4-1-0.4-0.2 0-0.5 0.1-0.7 0.1-0.4 0-0.8 0.2-1 0.5-0.2 0.3-0.4 0.6-0.7 0.9-0.1 0.1-0.3 0.2-0.4 0.4-0.2 0.2-0.4 0.2-0.6 0-0.1-0.1-0.2-0.1-0.3-0.2-0.1 0.1-0.2 0.2-0.2 0.3-0.1 0.2-0.2 0.4-0.3 0.7-0.1 0.3-0.3 0.6-0.5 0.8-0.1 0.1-0.1 0.1-0.2 0.2-0.1 0.2-0.4 0.3-0.6 0.3-0.2 0.2-0.4 0.5-0.5 0.7-0.1 0.2-0.2 0.4-0.3 0.7-0.1 0.1-0.1 0.3-0.2 0.4-0.1 0.2-0.1 0.3-0.1 0.5 0.1 0.3-0.1 0.4-0.4 0.5-0.2 0-0.2 0-0.3 0.2 0 0.3 0.1 0.5 0.2 0.8 0.1 0.1 0.2 0.3 0.2 0.4 0 0.2 0.1 0.3 0.3 0.4 0.1 0.1 0.2 0.2 0.3 0.2 0.1 0 0.1 0.1 0.2 0.1 0.1 0.1 0.2 0 0.2-0.1 0.1-0.3 0.2-0.6 0.2-0.9 0.1-0.4 0.1-0.7 0.2-1.1 0.1-0.2 0.2-0.3 0.3-0.4 0 0 0.1 0 0.2 0v0.1c-0.1 0.5-0.3 1.1-0.4 1.6-0.1 0.2-0.1 0.4-0.2 0.6 0 0.1-0.1 0.2-0.2 0.2-0.2 0.1-0.4 0.2-0.6 0.2-0.1 0-0.2 0-0.3 0-0.2-0.1-0.4-0.3-0.6-0.4-0.1-0.1-0.2-0.2-0.3-0.3-0.1-0.2-0.2-0.4-0.3-0.6-0.1-0.2-0.2-0.3-0.4-0.4-0.1-0.1-0.2-0.1-0.3-0.2-0.2-0.2-0.4-0.3-0.7-0.3-0.1 0-0.3 0-0.4 0-0.1 0-0.3 0.1-0.4 0.2-0.2 0.1-0.3 0.1-0.5 0-0.5-0.2-1-0.1-1.5 0.1-0.2 0.1-0.4 0.2-0.6 0.2-0.5 0-0.9 0-1.4 0-0.5 0-0.9-0.1-1.4-0.2-0.2 0-0.4 0-0.6 0-0.4 0.1-0.5 0.4-0.4 0.8 0.1 0.4 0.2 0.9 0.2 1.3 0 0.3 0 0.6 0 0.9 0 0.2 0 0.3 0 0.5 0 0.3-0.1 0.6-0.1 0.9-0.1 0.6-0.4 1.1-0.8 1.5-0.3 0.3-0.7 0.6-1.1 0.7-0.2 0.1-0.4 0.2-0.7 0.3-0.5 0.2-0.9 0.6-1.2 1.1-0.1 0.2-0.2 0.4-0.3 0.6-0.2 0.3-0.3 0.5-0.5 0.8-0.1 0.2-0.3 0.4-0.4 0.6-0.1 0.2-0.3 0.3-0.3 0.5-0.2 0.4-0.3 0.8-0.5 1.2-0.1 0.2-0.1 0.5-0.2 0.7-0.2 0.4-0.2 0.8-0.2 1.3 0 0.1 0 0.2 0 0.4 0 0.5-0.1 1.1-0.1 1.6 0 0.5 0 1 0.1 1.5 0 0.2 0 0.5 0 0.7 0 0.4 0.1 0.9 0.1 1.3 0 0.4 0 0.9 0.2 1.3v0.1c0.1 0.4 0.1 0.8 0.2 1.2 0 0.1 0 0.2 0.1 0.3 0.2 0.6 0.3 1.1 0.5 1.7 0.1 0.4 0.3 0.8 0.4 1.2 0.1 0.4 0.5 0.8 0.6 1.3v0c0.3 0.6 0.6 1.2 1 1.8 0.1 0.2 0.3 0.4 0.4 0.6 0.2 0.3 0.3 0.6 0.5 0.8 0.1 0.2 0.3 0.4 0.4 0.5 0.1 0.2 0.2 0.4 0.4 0.6 0.2 0.2 0.4 0.5 0.6 0.7 0.3 0.5 0.7 0.9 1.1 1.2 0.2 0.2 0.4 0.3 0.6 0.5 0.1 0.1 0.2 0.1 0.2 0.2 0.1 0.1 0.2 0.2 0.4 0.3 0.8 0.4 1.4 1 2.1 1.6 0.3 0.3 0.6 0.6 1 0.8 0.4 0.3 0.7 0.6 1.2 0.7 0 0 0.1 0 0.1 0.1 0.2 0.2 0.5 0.3 0.7 0.4 0.4 0.2 0.9 0.4 1.3 0.6 0.1 0.1 0.3 0.1 0.4 0.2 0.3 0.1 0.6 0.2 0.9 0.3 0.3 0.1 0.5 0.2 0.8 0.2h0.1c0.2 0.1 0.3 0.1 0.5 0 0.1 0 0.2 0 0.2 0.1 0 0.1 0.1 0.1 0.2 0.1 0.1 0 0.2 0 0.4 0 0.1-0.1 0.1-0.2 0.2-0.4 0.1 0.1 0.2 0.1 0.2 0.1 0.1 0.2 0.3 0.2 0.5 0.2h0.1c0.2 0 0.3 0 0.4-0.1 0-0.1 0.2-0.1 0.3-0.1 0.3 0.1 0.6 0.1 0.9 0.2 0.2 0.1 0.5 0.1 0.6-0.1 0.1-0.1 0.2-0.2 0.4-0.1 0.2 0.1 0.3 0.1 0.5 0 0.1 0 0.2 0 0.2 0 0.3 0.1 0.5 0.1 0.8 0.2 0.4 0.1 0.4 0.1 0.7-0.2 0.1-0.1 0.3-0.1 0.4 0 0.1 0.2 0.1 0.3 0.1 0.5 0.1 0 0.1 0 0.2-0.1 0-0.2 0.1-0.2 0.3-0.3 0.1 0.1 0.1 0.1 0.2 0.1 0.2 0.2 0.3 0.2 0.4-0.1 0-0.1 0-0.2 0.1-0.2 0.1 0 0.2 0.1 0.2 0.1 0.1 0.2 0.3 0.3 0.4 0.5 0.2 0.2 0.5 0.2 0.6 0 0.1-0.1 0.2-0.1 0.3-0.1 0-0.1 0-0.2 0-0.3 0.3 0.2 0.2 0.2 0.1 0.2zM37.4 23.8c0.3 0.1 0.5 0.1 0.6-0.1-0.2 0.1-0.4-0.1-0.6 0.1z" fill="#106a46" fill-rule="nonzero" stroke="none" stroke-width="1" stroke-linecap="butt" stroke-linejoin="miter" stroke-miterlimit="10" stroke-dasharray="" stroke-dashoffset="0" font-family="none" font-weight="none" font-size="none" text-anchor="none" style="mix-blend-mode: normal" data-fill-palette-color="tertiary"></path></g><g transform="matrix(1,0,0,1,78.25779572168409,90)"><svg viewBox="0 0 163.48440855663182 180" height="180" width="163.48440855663182"><g><svg viewBox="0 0 178.88760000000002 196.95925919960644" height="180" width="163.48440855663182"><g><svg viewBox="0 0 178.88760000000002 196.95925919960644" height="196.95925919960644" width="178.88760000000002"><g id="textblocktransform"><svg viewBox="0 0 178.88760000000002 196.95925919960644" height="196.95925919960644" width="178.88760000000002" id="textblock"><g><svg viewBox="0 0 178.88760000000002 178.88760000000002" height="178.88760000000002" width="178.88760000000002"><g transform="matrix(1,0,0,1,57.82064124245334,57.82169534774526)"><svg viewBox="0 0 63.24631751509334 63.2442093045095" height="63.2442093045095" width="63.24631751509334"><g id="icon-0"><svg xmlns="http://www.w3.org/2000/svg" xmlns:xlink="http://www.w3.org/1999/xlink" version="1.1" x="0" y="0" viewBox="5 5.002 90 89.997" enable-background="new 0 0 100 100" xml:space="preserve" height="63.2442093045095" width="63.24631751509334" class="icon-jxe-0" data-fill-palette-color="accent" id="jxe-0"><g fill="#a6bb05" data-fill-palette-color="accent"><path fill="none" d="M65.601 64.003H58.357C58.571 63.898 58.787 63.684 58.894 63.471L64.75 56.872C65.281 56.123 65.495 54.952 65.068 54.101L61.446 45.794C61.021 44.943 60.169 44.195 59.318 43.875L57.719 43.45 52.501 41.853 53.138 39.828C54.31 41.32 56.228 42.385 58.356 42.385H58.464C60.277 42.385 61.978 41.64 63.259 40.36 64.536 39.083 65.176 37.381 65.176 35.569 65.176 31.839 62.086 28.86 58.356 28.86 57.719 28.86 57.081 28.966 56.442 29.18L58.356 22.894C58.57 22.468 58.464 21.935 58.25 21.509 58.038 21.084 57.613 20.761 57.187 20.549L55.804 20.123H55.272C54.416 20.123 53.672 20.655 53.461 21.403L47.071 41.959C46.967 41.959 46.967 42.067 46.967 42.173L40.68 64.004H34.29C33.864 64.11 33.544 64.322 33.225 64.644 32.692 65.18 32.373 65.817 32.373 66.667 32.373 67.519 32.693 68.264 33.225 68.8L42.702 78.597C43.131 79.236 43.664 79.66 44.408 79.768 45.154 79.982 45.898 79.874 46.43 79.45 47.178 79.024 47.604 78.491 47.818 77.747 48.136 76.896 47.923 76.147 47.498 75.402L42.065 69.866H57.72L52.289 75.4C51.971 76.145 51.863 76.894 52.077 77.745 52.185 78.49 52.716 79.128 53.354 79.553 54.099 79.873 54.848 79.981 55.485 79.767 56.23 79.659 56.762 79.235 57.188 78.596L66.669 68.799C67.308 68.264 67.626 67.625 67.626 66.774 67.626 66.029 67.308 65.283 66.772 64.752A2.95 2.95 0 0 0 65.601 64.003M56.548 59.424L58.787 51.01 60.278 54.418C60.384 54.736 60.278 55.483 59.96 55.801z"></path><path fill-rule="evenodd" clip-rule="evenodd" d="M60.278 54.418L58.787 51.01 56.548 59.424 59.959 55.802C60.278 55.483 60.384 54.737 60.278 54.418" fill="#a6bb05" data-fill-palette-color="accent"></path><path fill-rule="evenodd" clip-rule="evenodd" d="M49.945 5.002C25.237 5.002 5 25.237 5 49.947 5 74.762 25.237 94.999 49.945 94.999 74.765 94.998 95 74.761 95 49.947 95 25.237 74.765 5.002 49.945 5.002M66.669 68.799L57.188 78.596C56.762 79.235 56.23 79.659 55.485 79.767 54.848 79.981 54.099 79.873 53.354 79.553 52.716 79.128 52.185 78.49 52.077 77.745 51.863 76.894 51.971 76.145 52.289 75.4L57.72 69.864H42.064L47.497 75.4C47.922 76.145 48.136 76.894 47.817 77.745 47.603 78.49 47.177 79.022 46.429 79.448 45.897 79.873 45.153 79.98 44.407 79.766 43.662 79.658 43.13 79.234 42.701 78.595L33.224 68.798C32.691 68.263 32.372 67.518 32.372 66.665 32.372 65.814 32.692 65.177 33.224 64.642 33.542 64.32 33.862 64.108 34.289 64.002H40.679L46.966 42.171C46.966 42.065 46.966 41.957 47.07 41.957L53.46 21.401C53.671 20.653 54.415 20.121 55.271 20.121H55.803L57.186 20.547C57.612 20.759 58.037 21.082 58.249 21.507 58.463 21.933 58.569 22.466 58.355 22.892L56.441 29.178A6 6 0 0 1 58.355 28.858C62.085 28.858 65.175 31.837 65.175 35.567 65.175 37.38 64.535 39.081 63.258 40.358 61.978 41.638 60.276 42.383 58.463 42.383H58.355C56.227 42.383 54.31 41.318 53.137 39.826L52.5 41.851 57.718 43.448 59.317 43.873C60.168 44.193 61.02 44.941 61.445 45.792L65.067 54.099C65.493 54.95 65.279 56.121 64.749 56.87L58.893 63.469A1.3 1.3 0 0 1 58.356 64.001H65.6C65.92 64.107 66.345 64.319 66.771 64.75 67.307 65.281 67.625 66.027 67.625 66.772 67.626 67.625 67.308 68.264 66.669 68.799" fill="#a6bb05" data-fill-palette-color="accent"></path></g></svg></g></svg></g><g id="text-0"><path d="M2.011 58.905v0l0.111-0.359c0.375-1.109 1.021-2.301 1.938-3.576v0l1.533 0.915c-2.152 2.921-2.63 5.21-1.433 6.864v0c0.355 0.491 0.802 0.828 1.34 1.01 0.545 0.184 1.004 0.24 1.379 0.167 0.375-0.073 0.737-0.226 1.087-0.458v0c0.549-0.357 1.125-0.909 1.727-1.654 0.611-0.75 1.161-1.364 1.651-1.841 0.498-0.481 1.023-0.882 1.575-1.203v0c1.238-0.724 2.443-0.888 3.616-0.491v0c0.961 0.325 1.69 0.8 2.185 1.424 0.496 0.625 0.82 1.259 0.974 1.904v0c0.26 1.174 0.132 2.523-0.384 4.049v0c-0.527 1.557-1.387 3.109-2.581 4.654v0l-1.575-0.918c1.005-1.239 1.828-2.692 2.471-4.36v0c0.535-1.412 0.475-2.618-0.18-3.617v0c-0.351-0.526-0.776-0.873-1.276-1.043-0.506-0.171-0.956-0.213-1.35-0.124-0.392 0.082-0.782 0.243-1.171 0.482v0c-0.71 0.431-1.355 1.02-1.936 1.767-0.579 0.74-1.095 1.337-1.548 1.79-0.453 0.454-0.946 0.833-1.478 1.139v0c-1.175 0.667-2.423 0.777-3.743 0.33v0c-2.134-0.722-3.23-2.242-3.289-4.562v0c-0.016-0.777 0.103-1.54 0.357-2.289z" fill="#106a46" data-fill-palette-color="primary"></path><path d="M28.863 47.226v0c-0.578 0.859-1.429 1.639-2.554 2.341v0l5.11 3.439-1.122 1.667c-9.373-6.308-14.678-9.833-15.915-10.575v0l0.953-1.707 1.726 1.161c-0.388-1.835-0.172-3.398 0.648-4.689v0c1.337-2.084 3.231-2.759 5.68-2.024v0c0.973 0.288 1.913 0.737 2.823 1.349 0.909 0.612 1.659 1.255 2.249 1.929 0.59 0.674 1.021 1.384 1.294 2.131v0c0.565 1.595 0.312 3.19-0.761 4.784v0c-0.042 0.062-0.085 0.126-0.131 0.194zM18.465 44.374v0l2.304 1.465 4.134 2.782c0.873-0.595 1.455-1.047 1.745-1.357v0c0.901-1 1.4-1.838 1.497-2.516 0.097-0.677 0.031-1.288-0.197-1.833v0c-0.412-1.011-1.338-1.993-2.777-2.944v0c-2.002-1.315-3.615-1.723-4.838-1.226v0c-0.442 0.184-0.805 0.494-1.091 0.93-0.28 0.44-0.484 0.84-0.613 1.202-0.127 0.371-0.217 0.722-0.269 1.054-0.056 0.337-0.08 0.652-0.072 0.942 0.003 0.287 0.015 0.54 0.039 0.761 0.027 0.214 0.056 0.389 0.088 0.523 0.031 0.135 0.048 0.208 0.05 0.217z" fill="#106a46" data-fill-palette-color="primary"></path><path d="M34.909 30.115v0c-0.711-0.87-1.231-1.746-1.56-2.63-0.324-0.888-0.462-1.736-0.414-2.544v0c0.09-1.655 0.836-3.055 2.24-4.203v0c1.509-1.233 3.04-1.706 4.592-1.42v0c1.519 0.288 2.994 1.306 4.424 3.056v0c1.408 1.724 2.047 3.451 1.916 5.183v0c-0.125 1.579-0.877 2.931-2.255 4.057v0c-1.441 1.177-2.937 1.644-4.489 1.402v0c-1.573-0.226-3.058-1.192-4.454-2.901zM42.796 30.289v0c2.043-1.669 1.958-3.858-0.255-6.567v0c-1.693-1.997-3.284-2.811-4.774-2.442v0c-0.532 0.129-1.052 0.401-1.561 0.817-0.508 0.415-0.881 0.873-1.119 1.373-0.238 0.5-0.344 1.033-0.319 1.597v0c0.055 1.169 0.624 2.399 1.706 3.691 1.082 1.292 2.157 2.073 3.225 2.344 1.074 0.267 2.106-0.004 3.097-0.813z" fill="#106a46" data-fill-palette-color="primary"></path><path d="M55.908 12.942l-0.216 1.176c0.273 0.523 0.595 1.197 0.968 2.024v0l2.64 5.856-1.804 0.813c-3.394-7.531-5.289-11.619-5.684-12.264v0l1.7-0.945 1.347 2.989c0.052-2.42 0.87-3.988 2.455-4.702v0c0.549-0.247 1.022-0.409 1.419-0.484v0l0.457 2.076c-0.417-0.02-0.838 0.066-1.264 0.258-0.422 0.183-0.766 0.449-1.031 0.799-0.259 0.347-0.47 0.727-0.632 1.142-0.156 0.412-0.274 0.832-0.355 1.262z" fill="#106a46" data-fill-palette-color="primary"></path><path d="M78.781 14.213l0.667 1.552c-1.003 0.638-2.044 1.067-3.125 1.287v0c-1.063 0.202-1.883 0.127-2.458-0.226v0c-0.653-0.392-1.097-1.172-1.334-2.338v0c-0.016-0.08-0.032-0.156-0.047-0.229-0.016-0.08-0.029-0.16-0.038-0.241v0l-1.604-8.206-2.158 0.438-0.268-1.623 2.178-0.442c-0.258-1.273-0.49-2.175-0.694-2.707v0l1.904-0.718 0.7 3.037 3.62-0.735 0.327 1.611-3.65 0.741 1.588 8.075c0.123 0.776 0.296 1.269 0.517 1.48 0.216 0.212 0.436 0.329 0.662 0.352 0.218 0.018 0.562-0.021 1.033-0.116 0.471-0.096 1.198-0.426 2.18-0.992z" fill="#106a46" data-fill-palette-color="primary"></path><path d="M111.883 0.173v0l0.368 0.073c1.141 0.261 2.392 0.783 3.754 1.567v0l-0.755 1.618c-3.124-1.846-5.449-2.089-6.974-0.732v0c-0.453 0.403-0.743 0.881-0.87 1.436-0.128 0.561-0.137 1.024-0.026 1.389 0.111 0.365 0.299 0.71 0.565 1.035v0c0.411 0.51 1.018 1.027 1.82 1.551 0.808 0.532 1.475 1.017 1.999 1.456 0.529 0.447 0.981 0.929 1.356 1.445v0c0.846 1.158 1.13 2.34 0.854 3.547v0c-0.226 0.989-0.625 1.762-1.196 2.319-0.571 0.556-1.17 0.943-1.796 1.161v0c-1.141 0.377-2.497 0.387-4.066 0.028v0c-1.603-0.367-3.233-1.066-4.892-2.098v0l0.754-1.659c1.334 0.874 2.863 1.547 4.588 2.017v0c1.459 0.389 2.652 0.208 3.58-0.545v0c0.488-0.402 0.79-0.86 0.908-1.374 0.119-0.521 0.115-0.973-0.012-1.356-0.121-0.382-0.32-0.753-0.599-1.116v0c-0.501-0.663-1.152-1.245-1.953-1.748-0.795-0.501-1.44-0.954-1.937-1.359-0.497-0.405-0.925-0.857-1.283-1.355v0c-0.782-1.102-1.018-2.332-0.707-3.691v0c0.502-2.196 1.904-3.44 4.206-3.733v0c0.771-0.094 1.542-0.053 2.314 0.124z" fill="#a6bb05" data-fill-palette-color="accent"></path><path d="M128.637 24.216l-0.448 1.63c-1.182-0.127-2.263-0.443-3.244-0.946v0c-0.957-0.506-1.55-1.077-1.779-1.712v0c-0.265-0.714-0.126-1.6 0.418-2.66v0c0.037-0.072 0.073-0.141 0.106-0.207 0.037-0.072 0.077-0.143 0.12-0.212v0l3.871-7.412-1.959-1.005 0.805-1.435 1.977 1.014c0.593-1.156 0.975-2.005 1.148-2.548v0l1.936 0.629-1.35 2.809 3.286 1.686-0.75 1.462-3.314-1.7-3.802 7.3c-0.388 0.683-0.561 1.176-0.519 1.478 0.036 0.3 0.135 0.529 0.297 0.689 0.159 0.15 0.452 0.334 0.879 0.553 0.427 0.219 1.201 0.415 2.322 0.587z" fill="#a6bb05" data-fill-palette-color="accent"></path><path d="M139.288 26.182v0c0.733-0.851 1.506-1.515 2.32-1.993 0.819-0.473 1.63-0.757 2.433-0.85v0c1.645-0.199 3.154 0.293 4.528 1.477v0c1.476 1.272 2.208 2.697 2.196 4.276v0c-0.019 1.546-0.767 3.175-2.242 4.887v0c-1.453 1.686-3.044 2.615-4.772 2.786v0c-1.577 0.151-3.039-0.355-4.387-1.516v0c-1.409-1.214-2.129-2.607-2.16-4.178v0c-0.051-1.589 0.644-3.219 2.084-4.889zM140.486 33.979v0c1.999 1.722 4.14 1.259 6.423-1.391v0c1.673-2.014 2.199-3.723 1.576-5.125v0c-0.22-0.502-0.578-0.967-1.075-1.396-0.497-0.428-1.013-0.716-1.546-0.863-0.534-0.147-1.077-0.16-1.629-0.038v0c-1.142 0.258-2.255 1.031-3.339 2.321-1.084 1.289-1.667 2.484-1.749 3.583-0.076 1.104 0.37 2.074 1.339 2.909z" fill="#a6bb05" data-fill-palette-color="accent"></path><path d="M159.842 43.885l-1.196-0.009c-0.468 0.359-1.076 0.794-1.826 1.304v0l-5.31 3.614-1.114-1.636c6.829-4.647 10.528-7.221 11.096-7.722v0l1.224 1.511-2.71 1.844c2.393-0.368 4.078 0.167 5.057 1.604v0c0.339 0.498 0.579 0.936 0.721 1.313v0l-1.965 0.81c-0.053-0.414-0.21-0.814-0.473-1.2-0.253-0.384-0.575-0.677-0.965-0.878-0.387-0.195-0.798-0.337-1.234-0.424-0.432-0.082-0.867-0.126-1.305-0.131z" fill="#a6bb05" data-fill-palette-color="accent"></path><path d="M163.116 68.237l-1.487 0.974c-0.805-0.925-1.409-1.923-1.813-2.993v0c-0.824-2.184-0.758-4.009 0.2-5.477v0c0.775-1.204 2.175-2.188 4.2-2.952 2.025-0.764 3.764-0.9 5.216-0.407 1.449 0.487 2.512 1.608 3.189 3.363v0c0.624 1.652 0.475 3.125-0.447 4.421v0c-0.827 1.18-2.257 2.153-4.288 2.92v0l-0.39 0.147-3.132-8.298c-2.284 0.999-3.392 2.325-3.325 3.978v0c0.024 0.504 0.175 1.124 0.452 1.857 0.277 0.734 0.819 1.557 1.625 2.467zM165.836 59.379l2.387 6.323c1.228-0.558 2.084-1.137 2.565-1.738v0c0.805-1.027 0.7-2.245-0.317-3.655v0c-0.555-0.781-1.37-1.215-2.443-1.301v0c-0.634-0.05-1.364 0.074-2.192 0.371z" fill="#a6bb05" data-fill-palette-color="accent"></path><path d="M23.726 115.486v0l0.13 0.352c0.38 1.121 0.595 2.473 0.646 4.057v0l-1.793 0.211c-0.063-3.664-1.085-5.793-3.064-6.387v0c-0.581-0.175-1.146-0.169-1.698 0.018-0.545 0.185-0.947 0.421-1.206 0.709-0.251 0.292-0.445 0.637-0.582 1.033v0c-0.226 0.619-0.352 1.416-0.38 2.39-0.027 0.974-0.093 1.803-0.196 2.488-0.104 0.685-0.279 1.327-0.526 1.924v0c-0.545 1.342-1.41 2.214-2.596 2.616v0c-0.967 0.328-1.842 0.392-2.624 0.193-0.78-0.193-1.427-0.502-1.943-0.927v0c-0.928-0.778-1.654-1.94-2.177-3.484v0c-0.532-1.57-0.792-3.339-0.781-5.307v0l1.828-0.234c-0.054 1.611 0.176 3.28 0.69 5.006v0c0.437 1.459 1.225 2.392 2.363 2.799v0c0.604 0.202 1.16 0.218 1.665 0.046 0.506-0.172 0.889-0.412 1.149-0.721 0.266-0.312 0.48-0.681 0.643-1.107v0c0.306-0.782 0.466-1.651 0.477-2.605 0.008-0.946 0.057-1.741 0.146-2.385 0.082-0.642 0.244-1.251 0.485-1.825v0c0.526-1.25 1.456-2.101 2.788-2.553v0c2.159-0.732 3.972-0.189 5.438 1.629v0c0.489 0.62 0.861 1.308 1.118 2.064z" fill="#106a46" data-fill-palette-color="primary"></path><path d="M16.974 142.55v0c-0.586-0.87-0.994-1.965-1.224-3.287v0l-5.167 3.482-1.134-1.683c9.464-6.379 14.778-10.005 15.942-10.879v0l1.23 1.533-1.742 1.174c1.869 0.34 3.249 1.135 4.141 2.386v0c1.444 2.045 1.357 4.078-0.259 6.097v0c-0.638 0.797-1.414 1.504-2.329 2.12-0.92 0.62-1.806 1.079-2.658 1.376-0.858 0.301-1.686 0.434-2.483 0.4v0c-1.71-0.08-3.105-0.922-4.187-2.526v0c-0.045-0.067-0.089-0.132-0.13-0.193zM23.578 133.901v0l-2.241 1.596-4.174 2.813c0.221 1.042 0.425 1.757 0.613 2.145v0c0.59 1.226 1.185 2.012 1.785 2.358 0.591 0.344 1.187 0.514 1.787 0.509v0c1.107-0.004 2.375-0.495 3.804-1.475v0c1.993-1.376 2.988-2.732 2.985-4.068v0c-0.004-0.478-0.157-0.935-0.457-1.368-0.301-0.434-0.599-0.779-0.895-1.037-0.292-0.252-0.584-0.467-0.875-0.646-0.292-0.179-0.576-0.322-0.852-0.429-0.273-0.102-0.515-0.183-0.728-0.244-0.212-0.061-0.387-0.102-0.524-0.124-0.137-0.022-0.213-0.032-0.228-0.03z" fill="#106a46" data-fill-palette-color="primary"></path><path d="M34.515 152.103v0c0.718-0.881 1.48-1.574 2.284-2.078 0.81-0.501 1.623-0.807 2.439-0.919v0c1.653-0.25 3.19 0.205 4.61 1.364v0c1.52 1.24 2.297 2.659 2.329 4.257v0c0.019 1.561-0.692 3.225-2.132 4.991v0c-1.419 1.741-2.998 2.718-4.737 2.933v0c-1.586 0.2-3.073-0.267-4.462-1.4v0c-1.458-1.189-2.226-2.575-2.305-4.158v0c-0.086-1.607 0.572-3.27 1.974-4.99zM35.939 159.943v0c2.06 1.68 4.207 1.152 6.438-1.585v0c1.635-2.08 2.119-3.819 1.454-5.218v0c-0.233-0.496-0.609-0.955-1.128-1.378-0.514-0.419-1.04-0.695-1.578-0.828-0.542-0.128-1.092-0.127-1.651 0.002v0c-1.143 0.299-2.243 1.113-3.301 2.441-1.057 1.329-1.611 2.549-1.662 3.66-0.055 1.116 0.421 2.085 1.428 2.906z" fill="#106a46" data-fill-palette-color="primary"></path><path d="M58.246 163.762l-1.037 0.624c-0.213 0.557-0.507 1.252-0.882 2.085v0l-2.659 5.914-1.823-0.819c3.42-7.608 5.243-11.777 5.467-12.507v0l1.853 0.655-1.361 3.026c1.863-1.588 3.597-2.021 5.202-1.3v0c0.555 0.25 0.993 0.498 1.311 0.746v0l-1.259 1.737c-0.268-0.328-0.613-0.591-1.036-0.789-0.426-0.191-0.857-0.271-1.296-0.237-0.44 0.039-0.87 0.136-1.287 0.289-0.42 0.16-0.818 0.352-1.193 0.576z" fill="#106a46" data-fill-palette-color="primary"></path><path d="M76.928 177.041l0.018 1.702c-1.187 0.202-2.324 0.192-3.411-0.028v0c-1.065-0.229-1.8-0.623-2.204-1.181v0c-0.448-0.615-0.553-1.513-0.315-2.693v0c0.016-0.08 0.032-0.156 0.047-0.229 0.016-0.08 0.036-0.162 0.06-0.247v0l1.733-8.253-2.179-0.441 0.39-1.619 2.198 0.445c0.26-1.286 0.4-2.214 0.419-2.783v0l2.055 0.074-0.544 3.1 3.65 0.738-0.33 1.632-3.69-0.747-1.687 8.128c-0.192 0.776-0.226 1.304-0.103 1.583 0.116 0.279 0.274 0.473 0.473 0.583 0.199 0.109 0.534 0.212 1.004 0.306 0.477 0.097 1.283 0.073 2.416-0.07z" fill="#106a46" data-fill-palette-color="primary"></path><path d="M106.769 159.174v0l0.364-0.094c1.154-0.264 2.521-0.34 4.101-0.228v0l0.027 1.805c-3.652-0.311-5.874 0.487-6.667 2.396v0c-0.233 0.56-0.285 1.123-0.155 1.691 0.128 0.561 0.322 0.985 0.582 1.272 0.265 0.28 0.588 0.508 0.968 0.684v0c0.593 0.288 1.373 0.495 2.338 0.622 0.966 0.126 1.784 0.276 2.455 0.449 0.671 0.173 1.291 0.413 1.861 0.72v0c1.279 0.679 2.058 1.629 2.337 2.85v0c0.227 0.996 0.202 1.873-0.076 2.63-0.272 0.756-0.645 1.369-1.121 1.838v0c-0.869 0.844-2.098 1.447-3.688 1.81v0c-1.616 0.369-3.402 0.447-5.359 0.234v0l-0.046-1.842c1.597 0.218 3.281 0.16 5.05-0.174v0c1.496-0.286 2.505-0.974 3.026-2.065v0c0.263-0.58 0.335-1.131 0.217-1.653-0.119-0.521-0.319-0.926-0.601-1.216-0.283-0.296-0.628-0.547-1.035-0.752v0c-0.747-0.385-1.595-0.632-2.543-0.742-0.94-0.105-1.726-0.234-2.358-0.388-0.63-0.148-1.219-0.37-1.766-0.669v0c-1.19-0.651-1.941-1.663-2.254-3.034v0c-0.507-2.223 0.218-3.97 2.175-5.243v0c0.667-0.423 1.389-0.723 2.168-0.901z" fill="#a6bb05" data-fill-palette-color="accent"></path><path d="M133.094 166.145l1.075 1.319c-0.802 0.897-1.697 1.599-2.684 2.105v0c-0.976 0.485-1.795 0.635-2.46 0.451v0c-0.734-0.202-1.376-0.838-1.925-1.91v0c-0.037-0.072-0.073-0.141-0.107-0.208-0.037-0.072-0.073-0.149-0.106-0.23v0l-3.792-7.533-1.977 1.014-0.705-1.509 1.996-1.023c-0.599-1.168-1.068-1.98-1.409-2.437v0l1.654-1.223 1.507 2.762 3.314-1.698 0.759 1.481-3.35 1.717 3.749 7.406c0.334 0.726 0.636 1.16 0.907 1.303 0.265 0.146 0.509 0.199 0.732 0.16 0.224-0.039 0.549-0.167 0.977-0.386 0.433-0.222 1.049-0.743 1.845-1.561z" fill="#a6bb05" data-fill-palette-color="accent"></path><path d="M139.65 156.057v0c-0.741-0.862-1.29-1.733-1.646-2.613-0.351-0.885-0.51-1.739-0.477-2.562v0c0.044-1.671 0.761-3.104 2.151-4.3v0c1.487-1.28 3.02-1.795 4.599-1.547v0c1.54 0.255 3.053 1.246 4.54 2.974v0c1.465 1.703 2.151 3.428 2.058 5.177v0c-0.081 1.596-0.802 2.979-2.161 4.148v0c-1.426 1.227-2.925 1.74-4.497 1.541v0c-1.597-0.197-3.119-1.136-4.567-2.818zM147.618 156.029v0c2.015-1.734 1.872-3.94-0.432-6.617v0c-1.761-1.974-3.389-2.756-4.882-2.345v0c-0.529 0.143-1.047 0.432-1.555 0.869-0.503 0.432-0.866 0.902-1.092 1.408-0.221 0.511-0.317 1.053-0.287 1.626v0c0.094 1.178 0.702 2.403 1.825 3.677 1.123 1.274 2.227 2.033 3.312 2.278 1.089 0.25 2.126-0.049 3.111-0.896z" fill="#a6bb05" data-fill-palette-color="accent"></path><path d="M155.283 134.735l0.433 1.13c0.511 0.307 1.144 0.718 1.899 1.233v0l5.358 3.652-1.126 1.652c-6.893-4.698-10.679-7.221-11.358-7.57v0l0.969-1.71 2.742 1.869c-1.237-2.112-1.361-3.895-0.371-5.349v0c0.343-0.503 0.664-0.89 0.964-1.161v0l1.49 1.544c-0.37 0.206-0.689 0.501-0.958 0.882-0.263 0.386-0.416 0.797-0.46 1.234-0.038 0.441-0.018 0.88 0.06 1.318 0.084 0.442 0.203 0.867 0.358 1.276z" fill="#a6bb05" data-fill-palette-color="accent"></path><path d="M172.093 116.859l1.769 0.257c-0.005 1.235-0.211 2.391-0.618 3.466v0c-0.836 2.208-2.107 3.55-3.814 4.025v0c-1.384 0.387-3.097 0.194-5.141-0.58-2.044-0.774-3.453-1.828-4.228-3.163-0.772-1.341-0.828-2.903-0.167-4.686v0c0.63-1.664 1.726-2.677 3.289-3.041v0c1.41-0.341 3.143-0.123 5.199 0.656v0l0.389 0.147-3.17 8.371c2.395 0.762 4.12 0.497 5.174-0.797v0c0.318-0.4 0.616-0.968 0.894-1.702 0.28-0.74 0.422-1.725 0.424-2.953zM164.121 121.75l2.418-6.387c-1.312-0.395-2.347-0.527-3.106-0.395v0c-1.299 0.239-2.032 1.231-2.201 2.976v0c-0.103 0.959 0.222 1.831 0.974 2.615v0c0.446 0.465 1.084 0.863 1.915 1.191z" fill="#a6bb05" data-fill-palette-color="accent"></path><path d="M0.752 90.834c0-3.866 3.134-7.001 7.001-7.001 3.866 0 7.001 3.134 7.001 7.001 0 3.866-3.134 7.001-7.001 7.001-3.866 0-7.001-3.134-7.001-7.001z" fill="#106a46" data-fill-palette-color="primary"></path><path d="M164.134 90.834c0-3.866 3.134-7.001 7-7.001 3.866 0 7.001 3.134 7.001 7.001 0 3.866-3.134 7.001-7.001 7.001-3.866 0-7.001-3.134-7-7.001z" fill="#106a46" data-fill-palette-color="primary"></path></g><g id="text-1"></g></svg></g><g transform="matrix(1,0,0,1,34.167531600000004,190.15374000000003)"><svg viewBox="0 0 110.55253680000001 6.80551919960643" height="6.80551919960643" width="110.55253680000001"><g transform="matrix(1,0,0,1,0,0)"><svg width="110.55253680000001" viewBox="3.1 -39.89 650.73299997972 40.3949412816" height="6.80551919960643" data-palette-color="#106a46"><g class="slogan-text-1" data-fill-palette-color="secondary" id="text-1"><path d="M20.68-27.51L19.85-23.9Q16.99-24.9 13.6-24.9L13.6-24.9Q10.47-24.9 9.25-22.66L9.25-22.66Q8.89-22 8.79-21.01 8.69-20.02 9.07-19.15 9.45-18.29 10.18-17.63L10.18-17.63Q11.33-16.58 13.18-15.84 15.04-15.11 15.98-14.7 16.92-14.28 17.77-13.77 18.63-13.26 19.37-12.6 20.12-11.94 20.65-11.11L20.65-11.11Q21.8-9.35 21.74-7.08 21.68-4.81 20.89-3.42 20.09-2.03 18.75-1.17L18.75-1.17Q16.24 0.49 11.77 0.49L11.77 0.49Q7.32 0.49 3.1-1.12L3.1-1.12 3.83-4.81Q7.71-3.27 11.87-3.17L11.87-3.17Q15.82-3.03 16.97-5.22L16.97-5.22Q17.85-6.88 17.11-8.54L17.11-8.54Q16.43-10.03 14.38-11.08L14.38-11.08Q13.4-11.6 12.17-12.1 10.94-12.6 9.53-13.28 8.13-13.96 6.98-14.97L6.98-14.97Q4.42-17.24 4.42-20.85L4.42-20.85 4.42-21.22Q4.42-23.07 5.32-24.5 6.23-25.93 7.52-26.81L7.52-26.81Q10.01-28.49 13.67-28.59L13.67-28.59Q17.36-28.59 20.68-27.51L20.68-27.51ZM34.2 0L30.03 0 30.05-8.28Q30.05-18.82 29.98-21.73L29.98-21.73 29.88-25.59Q29.81-27.83 29.73-28.25L29.73-28.25 33.93-28.47Q33.91-28.17 33.9-27.7 33.88-27.22 33.88-26.51L33.88-26.51 33.88-24.68 35.74-26Q39.43-28.59 42.78-28.59 46.14-28.59 48.13-27.55 50.12-26.51 51.1-24.32L51.1-24.32Q51.41-24.51 52.96-25.6 54.51-26.68 55.61-27.25L55.61-27.25Q58.2-28.59 60.64-28.59L60.64-28.59Q65.28-28.59 67.5-26.45 69.72-24.32 69.85-19.68L69.85-19.68 69.85 0 65.7 0 65.7-18.19Q65.7-21.95 64.6-23.44L64.6-23.44Q63.5-24.9 60.81-24.9L60.81-24.9Q58.42-24.9 56.87-24.29 55.32-23.68 54.25-23.07L54.25-23.07 51.9-21.68 51.83-21.63Q52-20.83 52-19.68L52-19.68 52 0 47.87 0 47.87-18.19Q47.87-21.92 46.77-23.44L46.77-23.44Q45.73-24.9 43.02-24.9L43.02-24.9Q40.62-24.9 39.07-24.29 37.52-23.68 36.45-23.07L36.45-23.07 34.1-21.68 34.15-19.46Q34.2-17.6 34.2-15.7L34.2-15.7 34.2 0ZM100.65-2.81L100.92 0.22Q100.12 0.49 98.92 0.49 97.72 0.49 96.96 0.22 96.19-0.05 95.62-0.54L95.62-0.54Q94.53-1.46 94.21-3L94.21-3Q92.89-0.98 89.47 0.07L89.47 0.07Q86.4 1.03 83.27-0.05L83.27-0.05Q79.9-1.17 78.41-4.17L78.41-4.17Q77.66-5.69 77.66-7.51 77.66-9.33 78.36-10.58 79.07-11.84 80.24-12.65L80.24-12.65Q82.44-14.18 86.13-14.5L86.13-14.5Q89.08-14.79 93.77-14.92L93.77-14.92 93.77-19.31Q93.77-22.41 93.42-23.19 93.06-23.97 92.57-24.37L92.57-24.37Q91.74-25 89.2-25L89.2-25 88.28-24.98Q84.47-24.78 80.88-23.73L80.88-23.73 80.2-27.34Q84.47-28.59 88.59-28.59L88.59-28.59Q94.48-28.59 96.31-26.37L96.31-26.37Q97.41-25.02 97.63-23.07 97.85-21.12 97.87-19.46L97.87-19.46 97.87-5.52Q97.87-3.44 98.25-3.04 98.63-2.64 99.13-2.64 99.63-2.64 100.65-2.81L100.65-2.81ZM93.77-5.71L93.77-8.94Q93.77-10.67 93.87-12.13L93.87-12.13Q85.3-12.13 83.08-10.5L83.08-10.5Q81.83-9.62 81.83-7.76L81.83-7.76Q81.83-5.64 83.27-4.3L83.27-4.3Q84.66-3 86.91-3L86.91-3Q91.23-2.88 93.77-5.71L93.77-5.71ZM114.69-20.17L113.27-18.12Q113.37-16.26 113.37-13.43L113.37-13.43 113.37 0 109.25 0Q109.25-25.9 108.95-28.25L108.95-28.25 113.01-28.59 113.01-21.73Q116.25-28.59 121.72-28.59L121.72-28.59Q123.6-28.59 124.82-28.3L124.82-28.3 123.92-23.95Q122.75-24.54 121.29-24.55 119.84-24.56 118.64-23.9 117.45-23.24 116.46-22.27 115.47-21.29 114.69-20.17L114.69-20.17ZM143.91-4.3L144.64-0.85Q141.15 0.49 137.71 0.49L137.71 0.49Q134.32 0.44 132.75-1L132.75-1Q131-2.61 131-6.35L131-6.35Q131-6.59 131-6.84 131-7.08 131.02-7.35L131.02-7.35 131.14-24.8 126.55-24.8 126.67-28.25 131.31-28.25Q131.31-32.32 131.02-34.08L131.02-34.08 135.22-34.77 135.39-28.25 143.11-28.25 143.11-24.8 135.32-24.8 135.22-7.62Q135.12-5.15 135.66-4.37 136.2-3.59 136.87-3.38 137.54-3.17 139.04-3.17 140.54-3.17 143.91-4.3L143.91-4.3Z" fill="#106a46" data-fill-palette-color="primary"></path><path d="M184.85 0L184.43-3.66Q180.14 0.49 175.42 0.49L175.42 0.49Q168.05 0.59 165.63-6.81L165.63-6.81Q164.63-9.94 164.71-13.51 164.78-17.09 165.41-19.76 166.05-22.44 167.39-24.41L167.39-24.41Q170.3-28.59 176.08-28.59L176.08-28.59Q180.5-28.52 184.38-26.56L184.38-26.56 184.38-39.89 188.51-39.55 188.51-26.66Q188.51-2.64 188.68 0L188.68 0 184.85 0ZM184.51-23.56L184.51-23.56Q181.01-24.93 176.35-25.02L176.35-25.02Q170.47-25.02 169.42-18.24L169.42-18.24Q168.29-10.91 170.22-6.59L170.22-6.59Q171.76-3.13 175.74-3.13L175.74-3.13Q180.55-3.13 184.43-7.28L184.43-7.28 184.43-19.29Q184.43-20.31 184.46-21.35 184.48-22.39 184.51-23.56ZM217.39-4.47L218.19-0.85Q214.61 0.49 211.02 0.49L211.02 0.49Q203.69 0.49 200.45-3.96L200.45-3.96Q197.78-7.54 197.78-14.33 197.78-21.12 200.82-24.83 203.86-28.54 209.77-28.59L209.77-28.59Q215.29-28.59 218.07-24.46L218.07-24.46Q220.61-20.73 220.61-13.92L220.61-13.92 220.61-13.04 202.08-13.04Q202.5-5.25 207.4-3.61L207.4-3.61Q208.92-3.13 211.37-3.13 213.82-3.13 217.39-4.47L217.39-4.47ZM202.08-16.33L216.22-16.33Q215.92-20.56 214.7-22.63L214.7-22.63Q212.58-26.12 207.33-24.71L207.33-24.71Q204.43-23.95 202.98-20.9L202.98-20.9Q202.13-19.09 202.08-16.33L202.08-16.33ZM246.83-4.47L247.46-0.85Q243.95 0.49 240.35 0.49 236.75 0.49 234.37-0.34 231.99-1.17 230.28-2.93L230.28-2.93Q226.71-6.64 226.71-14.01L226.71-14.01Q226.71-28.61 239.21-28.61L239.21-28.61 240.07-28.59Q243.27-28.47 244.64-27.98 246.02-27.49 246.66-27.22L246.66-27.22 245.73-23.61Q242.65-25 239.51-25L239.51-25 239.09-25Q231.08-25 231.08-14.06L231.08-14.06Q231.08-8.28 233.72-5.47L233.72-5.47Q235.92-3.13 239.66-3.13 243.41-3.13 246.83-4.47L246.83-4.47ZM255.3-33.74L255.3-39.55 259.45-39.55 259.45-33.74 255.3-33.74ZM255.3 0L255.3-28.25 259.45-28.25 259.45 0 255.3 0ZM286.4-27.51L285.57-23.9Q282.71-24.9 279.32-24.9L279.32-24.9Q276.19-24.9 274.97-22.66L274.97-22.66Q274.61-22 274.51-21.01 274.41-20.02 274.79-19.15 275.17-18.29 275.9-17.63L275.9-17.63Q277.05-16.58 278.9-15.84 280.76-15.11 281.7-14.7 282.64-14.28 283.49-13.77 284.35-13.26 285.09-12.6 285.84-11.94 286.38-11.11L286.38-11.11Q287.52-9.35 287.46-7.08 287.4-4.81 286.61-3.42 285.81-2.03 284.47-1.17L284.47-1.17Q281.96 0.49 277.49 0.49L277.49 0.49Q273.05 0.49 268.82-1.12L268.82-1.12 269.55-4.81Q273.44-3.27 277.59-3.17L277.59-3.17Q281.54-3.03 282.69-5.22L282.69-5.22Q283.57-6.88 282.84-8.54L282.84-8.54Q282.15-10.03 280.1-11.08L280.1-11.08Q279.12-11.6 277.89-12.1 276.66-12.6 275.25-13.28 273.85-13.96 272.7-14.97L272.7-14.97Q270.14-17.24 270.14-20.85L270.14-20.85 270.14-21.22Q270.14-23.07 271.04-24.5 271.95-25.93 273.24-26.81L273.24-26.81Q275.73-28.49 279.39-28.59L279.39-28.59Q283.08-28.59 286.4-27.51L286.4-27.51ZM296.99-33.74L296.99-39.55 301.14-39.55 301.14-33.74 296.99-33.74ZM296.99 0L296.99-28.25 301.14-28.25 301.14 0 296.99 0ZM311.42-13.77L311.42-13.77Q311.42-17.29 312.38-20.08 313.35-22.88 315.08-24.76L315.08-24.76Q318.57-28.59 324.26-28.59L324.26-28.59Q330.36-28.59 333.56-24.8L333.56-24.8Q336.69-21.09 336.69-14.01L336.69-14.01Q336.69-7.03 332.93-3.1L332.93-3.1Q329.49 0.49 323.92 0.49L323.92 0.49Q318.08 0.49 314.79-3.17L314.79-3.17Q311.42-6.86 311.42-13.77ZM323.97-3.05L323.97-3.05Q332.22-3.05 332.22-14.01L332.22-14.01Q332.07-22.22 327.73-24.29L327.73-24.29Q326.19-25.02 324.13-25.02 322.06-25.02 320.5-24.28 318.94-23.54 317.86-22.12L317.86-22.12Q315.69-19.17 315.75-13.89 315.81-8.62 317.88-5.83 319.94-3.05 323.97-3.05ZM349.89 0L345.72 0 345.74-8.28Q345.74-18.82 345.67-21.73L345.67-21.73 345.57-25.59Q345.5-27.83 345.43-28.25L345.43-28.25 349.62-28.47Q349.6-28.17 349.59-27.7 349.58-27.22 349.58-26.51L349.58-26.51 349.58-24.68Q355.29-28.59 359.67-28.59 364.05-28.59 366.3-26.45 368.55-24.32 368.67-19.68L368.67-19.68 368.67 0 364.47 0 364.47-18.19Q364.47-21.92 363.39-23.44L363.39-23.44Q362.32-24.9 359.61-24.9L359.61-24.9Q355.97-24.9 352.36-23.07L352.36-23.07Q351.14-22.46 349.8-21.68L349.8-21.68 349.84-19.46Q349.89-17.6 349.89-15.7L349.89-15.7 349.89 0ZM394.69-27.51L393.86-23.9Q391-24.9 387.61-24.9L387.61-24.9Q384.49-24.9 383.26-22.66L383.26-22.66Q382.9-22 382.8-21.01 382.7-20.02 383.08-19.15 383.46-18.29 384.19-17.63L384.19-17.63Q385.34-16.58 387.2-15.84 389.05-15.11 389.99-14.7 390.93-14.28 391.79-13.77 392.64-13.26 393.38-12.6 394.13-11.94 394.67-11.11L394.67-11.11Q395.81-9.35 395.75-7.08 395.69-4.81 394.9-3.42 394.1-2.03 392.76-1.17L392.76-1.17Q390.25 0.49 385.78 0.49L385.78 0.49Q381.34 0.49 377.11-1.12L377.11-1.12 377.85-4.81Q381.73-3.27 385.88-3.17L385.88-3.17Q389.83-3.03 390.98-5.22L390.98-5.22Q391.86-6.88 391.13-8.54L391.13-8.54Q390.44-10.03 388.39-11.08L388.39-11.08Q387.42-11.6 386.18-12.1 384.95-12.6 383.55-13.28 382.14-13.96 380.99-14.97L380.99-14.97Q378.43-17.24 378.43-20.85L378.43-20.85 378.43-21.22Q378.43-23.07 379.33-24.5 380.24-25.93 381.53-26.81L381.53-26.81Q384.02-28.49 387.68-28.59L387.68-28.59Q391.37-28.59 394.69-27.51L394.69-27.51Z" fill="#a6bb05" data-fill-palette-color="accent"></path><path d="M433.173-27.51L432.343-23.9Q429.493-24.9 426.093-24.9L426.093-24.9Q422.973-24.9 421.753-22.66L421.753-22.66Q421.383-22 421.283-21.01 421.193-20.02 421.573-19.15 421.943-18.29 422.683-17.63L422.683-17.63Q423.823-16.58 425.683-15.84 427.533-15.11 428.473-14.7 429.413-14.28 430.273-13.77 431.123-13.26 431.873-12.6 432.613-11.94 433.153-11.11L433.153-11.11Q434.303-9.35 434.243-7.08 434.183-4.81 433.383-3.42 432.593-2.03 431.253-1.17L431.253-1.17Q428.733 0.49 424.263 0.49L424.263 0.49Q419.823 0.49 415.603-1.12L415.603-1.12 416.333-4.81Q420.213-3.27 424.363-3.17L424.363-3.17Q428.323-3.03 429.463-5.22L429.463-5.22Q430.343-6.88 429.613-8.54L429.613-8.54Q428.933-10.03 426.883-11.08L426.883-11.08Q425.903-11.6 424.673-12.1 423.433-12.6 422.033-13.28 420.633-13.96 419.483-14.97L419.483-14.97Q416.913-17.24 416.913-20.85L416.913-20.85 416.913-21.22Q416.913-23.07 417.823-24.5 418.723-25.93 420.023-26.81L420.023-26.81Q422.513-28.49 426.173-28.59L426.173-28.59Q429.853-28.59 433.173-27.51L433.173-27.51ZM456.373-4.3L457.103-0.85Q453.613 0.49 450.163 0.49L450.163 0.49Q446.773 0.44 445.213-1L445.213-1Q443.453-2.61 443.453-6.35L443.453-6.35Q443.453-6.59 443.453-6.84 443.453-7.08 443.473-7.35L443.473-7.35 443.603-24.8 439.013-24.8 439.133-28.25 443.773-28.25Q443.773-32.32 443.473-34.08L443.473-34.08 447.673-34.77 447.843-28.25 455.563-28.25 455.563-24.8 447.773-24.8 447.673-7.62Q447.583-5.15 448.113-4.37 448.653-3.59 449.323-3.38 449.993-3.17 451.493-3.17 453.003-3.17 456.373-4.3L456.373-4.3ZM483.953-2.81L484.223 0.22Q483.413 0.49 482.223 0.49 481.023 0.49 480.253 0.22 479.483-0.05 478.923-0.54L478.923-0.54Q477.823-1.46 477.513-3L477.513-3Q476.193-0.98 472.773 0.07L472.773 0.07Q469.693 1.03 466.573-0.05L466.573-0.05Q463.203-1.17 461.713-4.17L461.713-4.17Q460.953-5.69 460.953-7.51 460.953-9.33 461.663-10.58 462.373-11.84 463.543-12.65L463.543-12.65Q465.743-14.18 469.423-14.5L469.423-14.5Q472.383-14.79 477.073-14.92L477.073-14.92 477.073-19.31Q477.073-22.41 476.713-23.19 476.363-23.97 475.873-24.37L475.873-24.37Q475.043-25 472.503-25L472.503-25 471.573-24.98Q467.763-24.78 464.183-23.73L464.183-23.73 463.493-27.34Q467.763-28.59 471.893-28.59L471.893-28.59Q477.773-28.59 479.603-26.37L479.603-26.37Q480.703-25.02 480.923-23.07 481.143-21.12 481.173-19.46L481.173-19.46 481.173-5.52Q481.173-3.44 481.553-3.04 481.923-2.64 482.423-2.64 482.933-2.64 483.953-2.81L483.953-2.81ZM477.073-5.71L477.073-8.94Q477.073-10.67 477.163-12.13L477.163-12.13Q468.593-12.13 466.373-10.5L466.373-10.5Q465.133-9.62 465.133-7.76L465.133-7.76Q465.133-5.64 466.573-4.3L466.573-4.3Q467.963-3 470.213-3L470.213-3Q474.533-2.88 477.073-5.71L477.073-5.71ZM497.993-20.17L496.573-18.12Q496.673-16.26 496.673-13.43L496.673-13.43 496.673 0 492.543 0Q492.543-25.9 492.253-28.25L492.253-28.25 496.303-28.59 496.303-21.73Q499.553-28.59 505.023-28.59L505.023-28.59Q506.903-28.59 508.123-28.3L508.123-28.3 507.213-23.95Q506.043-24.54 504.593-24.55 503.143-24.56 501.943-23.9 500.743-23.24 499.763-22.27 498.773-21.29 497.993-20.17L497.993-20.17ZM527.213-4.3L527.943-0.85Q524.453 0.49 521.013 0.49L521.013 0.49Q517.613 0.44 516.053-1L516.053-1Q514.293-2.61 514.293-6.35L514.293-6.35Q514.293-6.59 514.293-6.84 514.293-7.08 514.323-7.35L514.323-7.35 514.443-24.8 509.853-24.8 509.973-28.25 514.613-28.25Q514.613-32.32 514.323-34.08L514.323-34.08 518.523-34.77 518.693-28.25 526.403-28.25 526.403-24.8 518.613-24.8 518.523-7.62Q518.423-5.15 518.963-4.37 519.493-3.59 520.163-3.38 520.843-3.17 522.343-3.17 523.843-3.17 527.213-4.3L527.213-4.3Z" fill="#106a46" data-fill-palette-color="primary"></path><path d="M554.213 0L550.013 0 549.933-34.4Q549.893-38.79 549.863-39.55L549.863-39.55 554.043-39.89 554.043-24.8Q559.583-28.59 563.753-28.59L563.753-28.59Q570.593-28.59 572.223-23.68L572.223-23.68Q572.793-22 572.863-19.68L572.863-19.68 572.863 0 568.783 0 568.783-18.19Q568.783-21.92 567.683-23.44L567.683-23.44Q566.633-24.9 563.923-24.9L563.923-24.9Q560.313-24.9 556.653-23.07L556.653-23.07Q555.433-22.46 554.113-21.68L554.113-21.68 554.163-19.46Q554.213-17.6 554.213-15.7L554.213-15.7 554.213 0ZM600.593-4.47L601.403-0.85Q597.813 0.49 594.223 0.49L594.223 0.49Q586.893 0.49 583.653-3.96L583.653-3.96Q580.993-7.54 580.993-14.33 580.993-21.12 584.033-24.83 587.073-28.54 592.973-28.59L592.973-28.59Q598.493-28.59 601.273-24.46L601.273-24.46Q603.813-20.73 603.813-13.92L603.813-13.92 603.813-13.04 585.283-13.04Q585.703-5.25 590.613-3.61L590.613-3.61Q592.123-3.13 594.573-3.13 597.033-3.13 600.593-4.47L600.593-4.47ZM585.283-16.33L599.423-16.33Q599.133-20.56 597.913-22.63L597.913-22.63Q595.783-26.12 590.533-24.71L590.533-24.71Q587.633-23.95 586.193-20.9L586.193-20.9Q585.333-19.09 585.283-16.33L585.283-16.33ZM617.703-20.17L616.293-18.12Q616.383-16.26 616.383-13.43L616.383-13.43 616.383 0 612.263 0Q612.263-25.9 611.973-28.25L611.973-28.25 616.023-28.59 616.023-21.73Q619.273-28.59 624.733-28.59L624.733-28.59Q626.613-28.59 627.833-28.3L627.833-28.3 626.933-23.95Q625.763-24.54 624.313-24.55 622.853-24.56 621.663-23.9 620.463-23.24 619.473-22.27 618.483-21.29 617.703-20.17L617.703-20.17ZM650.613-4.47L651.423-0.85Q647.833 0.49 644.243 0.49L644.243 0.49Q636.913 0.49 633.673-3.96L633.673-3.96Q631.013-7.54 631.013-14.33 631.013-21.12 634.053-24.83 637.093-28.54 642.993-28.59L642.993-28.59Q648.513-28.59 651.293-24.46L651.293-24.46Q653.833-20.73 653.833-13.92L653.833-13.92 653.833-13.04 635.303-13.04Q635.723-5.25 640.633-3.61L640.633-3.61Q642.143-3.13 644.593-3.13 647.053-3.13 650.613-4.47L650.613-4.47ZM635.303-16.33L649.443-16.33Q649.153-20.56 647.933-22.63L647.933-22.63Q645.803-26.12 640.553-24.71L640.553-24.71Q637.653-23.95 636.213-20.9L636.213-20.9Q635.353-19.09 635.303-16.33L635.303-16.33Z" fill="#a6bb05" data-fill-palette-color="accent"></path></g></svg></g></svg></g></svg></g></svg></g><g></g></svg></g></svg></g></svg></g><defs></defs></svg><rect width="320" height="360" fill="none" stroke="none" visibility="hidden"></rect></g></svg></g></svg>